<mxfile host="app.diagrams.net" modified="2024-04-22T13:10:17.866Z" agent="Mozilla/5.0 (Windows NT 10.0; Win64; x64) AppleWebKit/537.36 (KHTML, like Gecko) Chrome/123.0.0.0 Safari/537.36" etag="2-rkSwiSHQgabdsRGkLv" version="24.2.7" type="device">
  <diagram name="Page-1" id="8DiWaBs77UvAqidTthWE">
    <mxGraphModel dx="6586" dy="2984" grid="1" gridSize="10" guides="1" tooltips="1" connect="1" arrows="1" fold="1" page="1" pageScale="1" pageWidth="850" pageHeight="1100" math="0" shadow="0">
      <root>
        <mxCell id="0" />
        <mxCell id="1" parent="0" />
        <mxCell id="uMmNGiAyV6p6Km0TEY7r-1" value="System Handler" style="shape=umlLifeline;perimeter=lifelinePerimeter;container=1;dropTarget=0;collapsible=0;recursiveResize=0;outlineConnect=0;portConstraint=eastwest;newEdgeStyle={&quot;edgeStyle&quot;:&quot;elbowEdgeStyle&quot;,&quot;elbow&quot;:&quot;vertical&quot;,&quot;curved&quot;:0,&quot;rounded&quot;:0};participant=umlActor;verticalAlign=bottom;labelPosition=center;verticalLabelPosition=top;align=center;size=65;strokeWidth=2;fontSize=16;fontStyle=0;labelBackgroundColor=none;labelBorderColor=none;textShadow=0;html=1;fontFamily=Helvetica;" parent="1" vertex="1">
          <mxGeometry x="20" y="230" width="35" height="1784" as="geometry" />
        </mxCell>
        <mxCell id="Z1XFatq_REj4g-xOahuL-1" value="" style="points=[];perimeter=orthogonalPerimeter;outlineConnect=0;targetShapes=umlLifeline;portConstraint=eastwest;newEdgeStyle={&quot;edgeStyle&quot;:&quot;elbowEdgeStyle&quot;,&quot;elbow&quot;:&quot;vertical&quot;,&quot;curved&quot;:0,&quot;rounded&quot;:0};fontSize=16;fontStyle=0;labelBackgroundColor=none;labelBorderColor=none;textShadow=0;html=1;fontFamily=Helvetica;" vertex="1" parent="uMmNGiAyV6p6Km0TEY7r-1">
          <mxGeometry x="12.5" y="80" width="10" height="1680" as="geometry" />
        </mxCell>
        <mxCell id="uMmNGiAyV6p6Km0TEY7r-2" value="ReportHandler" style="shape=umlLifeline;perimeter=lifelinePerimeter;container=1;dropTarget=0;collapsible=0;recursiveResize=0;outlineConnect=0;portConstraint=eastwest;newEdgeStyle={&quot;edgeStyle&quot;:&quot;elbowEdgeStyle&quot;,&quot;elbow&quot;:&quot;vertical&quot;,&quot;curved&quot;:0,&quot;rounded&quot;:0};size=65;strokeWidth=2;fontSize=16;fontStyle=0;labelBackgroundColor=none;labelBorderColor=none;textShadow=0;html=1;fontFamily=Helvetica;" parent="1" vertex="1">
          <mxGeometry x="272" y="230" width="150" height="1784" as="geometry" />
        </mxCell>
        <mxCell id="uMmNGiAyV6p6Km0TEY7r-3" value="BlueprintPersistenceService" style="shape=umlLifeline;perimeter=lifelinePerimeter;container=1;dropTarget=0;collapsible=0;recursiveResize=0;outlineConnect=0;portConstraint=eastwest;newEdgeStyle={&quot;edgeStyle&quot;:&quot;elbowEdgeStyle&quot;,&quot;elbow&quot;:&quot;vertical&quot;,&quot;curved&quot;:0,&quot;rounded&quot;:0};size=65;strokeWidth=2;fontSize=16;fontStyle=0;labelBackgroundColor=none;labelBorderColor=none;textShadow=0;html=1;fontFamily=Helvetica;" parent="1" vertex="1">
          <mxGeometry x="472" y="230" width="212" height="1784" as="geometry" />
        </mxCell>
        <mxCell id="uMmNGiAyV6p6Km0TEY7r-4" value="" style="points=[];perimeter=orthogonalPerimeter;outlineConnect=0;targetShapes=umlLifeline;portConstraint=eastwest;newEdgeStyle={&quot;edgeStyle&quot;:&quot;elbowEdgeStyle&quot;,&quot;elbow&quot;:&quot;vertical&quot;,&quot;curved&quot;:0,&quot;rounded&quot;:0};fontSize=16;fontStyle=0;labelBackgroundColor=none;labelBorderColor=none;textShadow=0;html=1;fontFamily=Helvetica;" parent="uMmNGiAyV6p6Km0TEY7r-3" vertex="1">
          <mxGeometry x="101" y="205" width="10" height="156" as="geometry" />
        </mxCell>
        <mxCell id="uMmNGiAyV6p6Km0TEY7r-5" value="ReportSchedulePersistenceService" style="shape=umlLifeline;perimeter=lifelinePerimeter;container=1;dropTarget=0;collapsible=0;recursiveResize=0;outlineConnect=0;portConstraint=eastwest;newEdgeStyle={&quot;edgeStyle&quot;:&quot;elbowEdgeStyle&quot;,&quot;elbow&quot;:&quot;vertical&quot;,&quot;curved&quot;:0,&quot;rounded&quot;:0};size=65;strokeWidth=2;fontSize=16;fontStyle=0;labelBackgroundColor=none;labelBorderColor=none;textShadow=0;html=1;fontFamily=Helvetica;" parent="1" vertex="1">
          <mxGeometry x="734" y="230" width="259" height="1784" as="geometry" />
        </mxCell>
        <mxCell id="uMmNGiAyV6p6Km0TEY7r-6" value="" style="points=[];perimeter=orthogonalPerimeter;outlineConnect=0;targetShapes=umlLifeline;portConstraint=eastwest;newEdgeStyle={&quot;edgeStyle&quot;:&quot;elbowEdgeStyle&quot;,&quot;elbow&quot;:&quot;vertical&quot;,&quot;curved&quot;:0,&quot;rounded&quot;:0};fontSize=16;fontStyle=0;labelBackgroundColor=none;labelBorderColor=none;textShadow=0;html=1;fontFamily=Helvetica;" parent="uMmNGiAyV6p6Km0TEY7r-5" vertex="1">
          <mxGeometry x="125" y="511" width="10" height="159" as="geometry" />
        </mxCell>
        <mxCell id="uMmNGiAyV6p6Km0TEY7r-7" value="ReportService" style="shape=umlLifeline;perimeter=lifelinePerimeter;container=1;dropTarget=0;collapsible=0;recursiveResize=0;outlineConnect=0;portConstraint=eastwest;newEdgeStyle={&quot;edgeStyle&quot;:&quot;elbowEdgeStyle&quot;,&quot;elbow&quot;:&quot;vertical&quot;,&quot;curved&quot;:0,&quot;rounded&quot;:0};size=65;strokeWidth=2;fontSize=16;fontStyle=0;labelBackgroundColor=none;labelBorderColor=none;textShadow=0;html=1;fontFamily=Helvetica;" parent="1" vertex="1">
          <mxGeometry x="1043" y="230" width="150" height="1784" as="geometry" />
        </mxCell>
        <mxCell id="uMmNGiAyV6p6Km0TEY7r-8" value="" style="points=[];perimeter=orthogonalPerimeter;outlineConnect=0;targetShapes=umlLifeline;portConstraint=eastwest;newEdgeStyle={&quot;edgeStyle&quot;:&quot;elbowEdgeStyle&quot;,&quot;elbow&quot;:&quot;vertical&quot;,&quot;curved&quot;:0,&quot;rounded&quot;:0};fontSize=16;fontStyle=0;labelBackgroundColor=none;labelBorderColor=none;textShadow=0;html=1;fontFamily=Helvetica;" parent="uMmNGiAyV6p6Km0TEY7r-7" vertex="1">
          <mxGeometry x="70" y="765" width="10" height="265" as="geometry" />
        </mxCell>
        <mxCell id="uMmNGiAyV6p6Km0TEY7r-9" value="" style="points=[];perimeter=orthogonalPerimeter;outlineConnect=0;targetShapes=umlLifeline;portConstraint=eastwest;newEdgeStyle={&quot;edgeStyle&quot;:&quot;elbowEdgeStyle&quot;,&quot;elbow&quot;:&quot;vertical&quot;,&quot;curved&quot;:0,&quot;rounded&quot;:0};fontSize=16;fontStyle=0;labelBackgroundColor=none;labelBorderColor=none;textShadow=0;html=1;fontFamily=Helvetica;" parent="uMmNGiAyV6p6Km0TEY7r-7" vertex="1">
          <mxGeometry x="70" y="1077" width="10" height="263" as="geometry" />
        </mxCell>
        <mxCell id="uMmNGiAyV6p6Km0TEY7r-10" value="" style="points=[];perimeter=orthogonalPerimeter;outlineConnect=0;targetShapes=umlLifeline;portConstraint=eastwest;newEdgeStyle={&quot;edgeStyle&quot;:&quot;elbowEdgeStyle&quot;,&quot;elbow&quot;:&quot;vertical&quot;,&quot;curved&quot;:0,&quot;rounded&quot;:0};fontSize=16;fontStyle=0;labelBackgroundColor=none;labelBorderColor=none;textShadow=0;html=1;fontFamily=Helvetica;" parent="uMmNGiAyV6p6Km0TEY7r-7" vertex="1">
          <mxGeometry x="70" y="1493" width="10" height="146" as="geometry" />
        </mxCell>
        <mxCell id="uMmNGiAyV6p6Km0TEY7r-11" value="ReportExcelProcessor" style="shape=umlLifeline;perimeter=lifelinePerimeter;container=1;dropTarget=0;collapsible=0;recursiveResize=0;outlineConnect=0;portConstraint=eastwest;newEdgeStyle={&quot;edgeStyle&quot;:&quot;elbowEdgeStyle&quot;,&quot;elbow&quot;:&quot;vertical&quot;,&quot;curved&quot;:0,&quot;rounded&quot;:0};size=65;strokeWidth=2;fontSize=16;fontStyle=0;labelBackgroundColor=none;labelBorderColor=none;textShadow=0;html=1;fontFamily=Helvetica;" parent="1" vertex="1">
          <mxGeometry x="1243" y="230" width="171" height="1784" as="geometry" />
        </mxCell>
        <mxCell id="uMmNGiAyV6p6Km0TEY7r-12" value="" style="points=[];perimeter=orthogonalPerimeter;outlineConnect=0;targetShapes=umlLifeline;portConstraint=eastwest;newEdgeStyle={&quot;edgeStyle&quot;:&quot;elbowEdgeStyle&quot;,&quot;elbow&quot;:&quot;vertical&quot;,&quot;curved&quot;:0,&quot;rounded&quot;:0};fontSize=16;fontStyle=0;labelBackgroundColor=none;labelBorderColor=none;textShadow=0;html=1;fontFamily=Helvetica;" parent="uMmNGiAyV6p6Km0TEY7r-11" vertex="1">
          <mxGeometry x="81" y="1389" width="10" height="51" as="geometry" />
        </mxCell>
        <mxCell id="uMmNGiAyV6p6Km0TEY7r-13" value="PlcConnector" style="shape=umlLifeline;perimeter=lifelinePerimeter;container=1;dropTarget=0;collapsible=0;recursiveResize=0;outlineConnect=0;portConstraint=eastwest;newEdgeStyle={&quot;edgeStyle&quot;:&quot;elbowEdgeStyle&quot;,&quot;elbow&quot;:&quot;vertical&quot;,&quot;curved&quot;:0,&quot;rounded&quot;:0};size=65;strokeWidth=2;fontSize=16;fontStyle=0;labelBackgroundColor=none;labelBorderColor=none;textShadow=0;html=1;fontFamily=Helvetica;" parent="1" vertex="1">
          <mxGeometry x="1464" y="230" width="150" height="1784" as="geometry" />
        </mxCell>
        <mxCell id="uMmNGiAyV6p6Km0TEY7r-62" value="" style="points=[];perimeter=orthogonalPerimeter;outlineConnect=0;targetShapes=umlLifeline;portConstraint=eastwest;newEdgeStyle={&quot;edgeStyle&quot;:&quot;elbowEdgeStyle&quot;,&quot;elbow&quot;:&quot;vertical&quot;,&quot;curved&quot;:0,&quot;rounded&quot;:0};fontSize=16;fontStyle=0;labelBackgroundColor=none;labelBorderColor=none;textShadow=0;html=1;fontFamily=Helvetica;" parent="uMmNGiAyV6p6Km0TEY7r-13" vertex="1">
          <mxGeometry x="70" y="460" width="10" height="20" as="geometry" />
        </mxCell>
        <mxCell id="uMmNGiAyV6p6Km0TEY7r-14" value="BlueprintRepository" style="shape=umlLifeline;perimeter=lifelinePerimeter;container=1;dropTarget=0;collapsible=0;recursiveResize=0;outlineConnect=0;portConstraint=eastwest;newEdgeStyle={&quot;edgeStyle&quot;:&quot;elbowEdgeStyle&quot;,&quot;elbow&quot;:&quot;vertical&quot;,&quot;curved&quot;:0,&quot;rounded&quot;:0};size=65;strokeWidth=2;fontSize=16;fontStyle=0;labelBackgroundColor=none;labelBorderColor=none;textShadow=0;html=1;fontFamily=Helvetica;" parent="1" vertex="1">
          <mxGeometry x="1664" y="230" width="159" height="1784" as="geometry" />
        </mxCell>
        <mxCell id="uMmNGiAyV6p6Km0TEY7r-15" value="" style="points=[];perimeter=orthogonalPerimeter;outlineConnect=0;targetShapes=umlLifeline;portConstraint=eastwest;newEdgeStyle={&quot;edgeStyle&quot;:&quot;elbowEdgeStyle&quot;,&quot;elbow&quot;:&quot;vertical&quot;,&quot;curved&quot;:0,&quot;rounded&quot;:0};fontSize=16;fontStyle=0;labelBackgroundColor=none;labelBorderColor=none;textShadow=0;html=1;fontFamily=Helvetica;" parent="uMmNGiAyV6p6Km0TEY7r-14" vertex="1">
          <mxGeometry x="75" y="257" width="10" height="53" as="geometry" />
        </mxCell>
        <mxCell id="uMmNGiAyV6p6Km0TEY7r-16" value="ReportScheduleRepository" style="shape=umlLifeline;perimeter=lifelinePerimeter;container=1;dropTarget=0;collapsible=0;recursiveResize=0;outlineConnect=0;portConstraint=eastwest;newEdgeStyle={&quot;edgeStyle&quot;:&quot;elbowEdgeStyle&quot;,&quot;elbow&quot;:&quot;vertical&quot;,&quot;curved&quot;:0,&quot;rounded&quot;:0};size=65;strokeWidth=2;fontSize=16;fontStyle=0;labelBackgroundColor=none;labelBorderColor=none;textShadow=0;html=1;fontFamily=Helvetica;" parent="1" vertex="1">
          <mxGeometry x="1873" y="230" width="207" height="1784" as="geometry" />
        </mxCell>
        <mxCell id="uMmNGiAyV6p6Km0TEY7r-17" value="" style="points=[];perimeter=orthogonalPerimeter;outlineConnect=0;targetShapes=umlLifeline;portConstraint=eastwest;newEdgeStyle={&quot;edgeStyle&quot;:&quot;elbowEdgeStyle&quot;,&quot;elbow&quot;:&quot;vertical&quot;,&quot;curved&quot;:0,&quot;rounded&quot;:0};fontSize=16;fontStyle=0;labelBackgroundColor=none;labelBorderColor=none;textShadow=0;html=1;fontFamily=Helvetica;" parent="uMmNGiAyV6p6Km0TEY7r-16" vertex="1">
          <mxGeometry x="99" y="563" width="10" height="57" as="geometry" />
        </mxCell>
        <mxCell id="uMmNGiAyV6p6Km0TEY7r-18" value="ReportPersistenceService" style="shape=umlLifeline;perimeter=lifelinePerimeter;container=1;dropTarget=0;collapsible=0;recursiveResize=0;outlineConnect=0;portConstraint=eastwest;newEdgeStyle={&quot;edgeStyle&quot;:&quot;elbowEdgeStyle&quot;,&quot;elbow&quot;:&quot;vertical&quot;,&quot;curved&quot;:0,&quot;rounded&quot;:0};size=65;strokeWidth=2;fontSize=16;fontStyle=0;labelBackgroundColor=none;labelBorderColor=none;textShadow=0;html=1;fontFamily=Helvetica;" parent="1" vertex="1">
          <mxGeometry x="2130" y="230" width="195" height="1784" as="geometry" />
        </mxCell>
        <mxCell id="uMmNGiAyV6p6Km0TEY7r-19" value="" style="points=[];perimeter=orthogonalPerimeter;outlineConnect=0;targetShapes=umlLifeline;portConstraint=eastwest;newEdgeStyle={&quot;edgeStyle&quot;:&quot;elbowEdgeStyle&quot;,&quot;elbow&quot;:&quot;vertical&quot;,&quot;curved&quot;:0,&quot;rounded&quot;:0};fontSize=16;fontStyle=0;labelBackgroundColor=none;labelBorderColor=none;textShadow=0;html=1;fontFamily=Helvetica;" parent="uMmNGiAyV6p6Km0TEY7r-18" vertex="1">
          <mxGeometry x="93" y="817" width="10" height="153" as="geometry" />
        </mxCell>
        <mxCell id="uMmNGiAyV6p6Km0TEY7r-20" value="" style="points=[];perimeter=orthogonalPerimeter;outlineConnect=0;targetShapes=umlLifeline;portConstraint=eastwest;newEdgeStyle={&quot;edgeStyle&quot;:&quot;elbowEdgeStyle&quot;,&quot;elbow&quot;:&quot;vertical&quot;,&quot;curved&quot;:0,&quot;rounded&quot;:0};fontSize=16;fontStyle=0;labelBackgroundColor=none;labelBorderColor=none;textShadow=0;html=1;fontFamily=Helvetica;" parent="uMmNGiAyV6p6Km0TEY7r-18" vertex="1">
          <mxGeometry x="93" y="1545" width="10" height="55" as="geometry" />
        </mxCell>
        <mxCell id="uMmNGiAyV6p6Km0TEY7r-21" value="ReportRepository" style="shape=umlLifeline;perimeter=lifelinePerimeter;container=1;dropTarget=0;collapsible=0;recursiveResize=0;outlineConnect=0;portConstraint=eastwest;newEdgeStyle={&quot;edgeStyle&quot;:&quot;elbowEdgeStyle&quot;,&quot;elbow&quot;:&quot;vertical&quot;,&quot;curved&quot;:0,&quot;rounded&quot;:0};size=65;strokeWidth=2;fontSize=16;fontStyle=0;labelBackgroundColor=none;labelBorderColor=none;textShadow=0;html=1;fontFamily=Helvetica;" parent="1" vertex="1">
          <mxGeometry x="2375" y="230" width="150" height="1784" as="geometry" />
        </mxCell>
        <mxCell id="uMmNGiAyV6p6Km0TEY7r-22" value="" style="points=[];perimeter=orthogonalPerimeter;outlineConnect=0;targetShapes=umlLifeline;portConstraint=eastwest;newEdgeStyle={&quot;edgeStyle&quot;:&quot;elbowEdgeStyle&quot;,&quot;elbow&quot;:&quot;vertical&quot;,&quot;curved&quot;:0,&quot;rounded&quot;:0};fontSize=16;fontStyle=0;labelBackgroundColor=none;labelBorderColor=none;textShadow=0;html=1;fontFamily=Helvetica;" parent="uMmNGiAyV6p6Km0TEY7r-21" vertex="1">
          <mxGeometry x="70" y="869" width="10" height="51" as="geometry" />
        </mxCell>
        <mxCell id="uMmNGiAyV6p6Km0TEY7r-23" value="ReportRowPersistenceService" style="shape=umlLifeline;perimeter=lifelinePerimeter;container=1;dropTarget=0;collapsible=0;recursiveResize=0;outlineConnect=0;portConstraint=eastwest;newEdgeStyle={&quot;edgeStyle&quot;:&quot;elbowEdgeStyle&quot;,&quot;elbow&quot;:&quot;vertical&quot;,&quot;curved&quot;:0,&quot;rounded&quot;:0};size=65;strokeWidth=2;fontSize=16;fontStyle=0;labelBackgroundColor=none;labelBorderColor=none;textShadow=0;html=1;fontFamily=Helvetica;" parent="1" vertex="1">
          <mxGeometry x="2575" y="230" width="225" height="1784" as="geometry" />
        </mxCell>
        <mxCell id="uMmNGiAyV6p6Km0TEY7r-24" value="" style="points=[];perimeter=orthogonalPerimeter;outlineConnect=0;targetShapes=umlLifeline;portConstraint=eastwest;newEdgeStyle={&quot;edgeStyle&quot;:&quot;elbowEdgeStyle&quot;,&quot;elbow&quot;:&quot;vertical&quot;,&quot;curved&quot;:0,&quot;rounded&quot;:0};fontSize=16;fontStyle=0;labelBackgroundColor=none;labelBorderColor=none;textShadow=0;html=1;fontFamily=Helvetica;" parent="uMmNGiAyV6p6Km0TEY7r-23" vertex="1">
          <mxGeometry x="108" y="1129" width="10" height="161" as="geometry" />
        </mxCell>
        <mxCell id="uMmNGiAyV6p6Km0TEY7r-25" value="ReportRowRepository" style="shape=umlLifeline;perimeter=lifelinePerimeter;container=1;dropTarget=0;collapsible=0;recursiveResize=0;outlineConnect=0;portConstraint=eastwest;newEdgeStyle={&quot;edgeStyle&quot;:&quot;elbowEdgeStyle&quot;,&quot;elbow&quot;:&quot;vertical&quot;,&quot;curved&quot;:0,&quot;rounded&quot;:0};size=65;strokeWidth=2;fontSize=16;fontStyle=0;labelBackgroundColor=none;labelBorderColor=none;textShadow=0;html=1;fontFamily=Helvetica;" parent="1" vertex="1">
          <mxGeometry x="2850" y="230" width="173" height="1784" as="geometry" />
        </mxCell>
        <mxCell id="uMmNGiAyV6p6Km0TEY7r-26" value="" style="points=[];perimeter=orthogonalPerimeter;outlineConnect=0;targetShapes=umlLifeline;portConstraint=eastwest;newEdgeStyle={&quot;edgeStyle&quot;:&quot;elbowEdgeStyle&quot;,&quot;elbow&quot;:&quot;vertical&quot;,&quot;curved&quot;:0,&quot;rounded&quot;:0};fontSize=16;fontStyle=0;labelBackgroundColor=none;labelBorderColor=none;textShadow=0;html=1;fontFamily=Helvetica;" parent="uMmNGiAyV6p6Km0TEY7r-25" vertex="1">
          <mxGeometry x="82" y="1181" width="10" height="49" as="geometry" />
        </mxCell>
        <mxCell id="uMmNGiAyV6p6Km0TEY7r-27" value="loop" style="shape=umlFrame;pointerEvents=0;dropTarget=0;strokeColor=#B3B3B3;height=20;width=40;strokeWidth=2;fontSize=16;fontStyle=0;labelBackgroundColor=none;labelBorderColor=none;textShadow=0;html=1;fontFamily=Helvetica;" parent="1" vertex="1">
          <mxGeometry x="280" y="917" width="2680" height="1003" as="geometry" />
        </mxCell>
        <mxCell id="uMmNGiAyV6p6Km0TEY7r-28" value="[for each reportTypes]" style="text;strokeColor=none;fillColor=none;align=center;verticalAlign=middle;fontSize=16;fontStyle=0;labelBackgroundColor=none;labelBorderColor=none;textShadow=0;html=1;fontFamily=Helvetica;" parent="uMmNGiAyV6p6Km0TEY7r-27" vertex="1">
          <mxGeometry x="40.916030534351144" width="2639.083969465649" height="20.42769857433808" as="geometry" />
        </mxCell>
        <mxCell id="uMmNGiAyV6p6Km0TEY7r-29" value="opt" style="shape=umlFrame;pointerEvents=0;dropTarget=0;strokeColor=#B3B3B3;height=20;width=30;strokeWidth=2;fontSize=16;fontStyle=0;labelBackgroundColor=none;labelBorderColor=none;textShadow=0;html=1;fontFamily=Helvetica;" parent="1" vertex="1">
          <mxGeometry x="230" y="611" width="2760" height="1339" as="geometry" />
        </mxCell>
        <mxCell id="uMmNGiAyV6p6Km0TEY7r-30" value="[checkerAddress is not empty]" style="text;strokeColor=none;fillColor=none;align=center;verticalAlign=middle;fontSize=16;fontStyle=0;labelBackgroundColor=none;labelBorderColor=none;textShadow=0;html=1;fontFamily=Helvetica;" parent="uMmNGiAyV6p6Km0TEY7r-29" vertex="1">
          <mxGeometry x="31.363636363636363" width="2728.636363636364" height="20.631741140215716" as="geometry" />
        </mxCell>
        <mxCell id="uMmNGiAyV6p6Km0TEY7r-31" value="loop" style="shape=umlFrame;pointerEvents=0;dropTarget=0;strokeColor=#B3B3B3;height=20;width=40;strokeWidth=2;fontSize=16;fontStyle=0;labelBackgroundColor=none;labelBorderColor=none;textShadow=0;html=1;fontFamily=Helvetica;" parent="1" vertex="1">
          <mxGeometry x="-125" y="340" width="3155" height="1630" as="geometry" />
        </mxCell>
        <mxCell id="uMmNGiAyV6p6Km0TEY7r-32" value="[for every second]" style="text;strokeColor=none;fillColor=none;align=center;verticalAlign=middle;fontSize=16;fontStyle=0;labelBackgroundColor=none;labelBorderColor=none;textShadow=0;html=1;fontFamily=Helvetica;" parent="uMmNGiAyV6p6Km0TEY7r-31" vertex="1">
          <mxGeometry x="43.71319709040526" width="3111.286802909594" height="20.198265179677822" as="geometry" />
        </mxCell>
        <mxCell id="uMmNGiAyV6p6Km0TEY7r-34" value="2. getAll()" style="verticalAlign=bottom;endArrow=block;edgeStyle=elbowEdgeStyle;elbow=vertical;curved=0;rounded=0;fontSize=16;fontStyle=0;labelBackgroundColor=none;labelBorderColor=none;textShadow=0;html=1;fontFamily=Helvetica;" parent="1" source="uMmNGiAyV6p6Km0TEY7r-2" target="uMmNGiAyV6p6Km0TEY7r-4" edge="1">
          <mxGeometry relative="1" as="geometry">
            <Array as="points">
              <mxPoint x="475" y="435" />
            </Array>
          </mxGeometry>
        </mxCell>
        <mxCell id="uMmNGiAyV6p6Km0TEY7r-35" value="3. findAll()" style="verticalAlign=bottom;endArrow=block;edgeStyle=elbowEdgeStyle;elbow=vertical;curved=0;rounded=0;fontSize=16;fontStyle=0;labelBackgroundColor=none;labelBorderColor=none;textShadow=0;html=1;fontFamily=Helvetica;" parent="1" source="uMmNGiAyV6p6Km0TEY7r-4" target="uMmNGiAyV6p6Km0TEY7r-15" edge="1">
          <mxGeometry relative="1" as="geometry">
            <Array as="points">
              <mxPoint x="1173" y="487" />
            </Array>
          </mxGeometry>
        </mxCell>
        <mxCell id="uMmNGiAyV6p6Km0TEY7r-36" value="4. return data" style="verticalAlign=bottom;endArrow=block;edgeStyle=elbowEdgeStyle;elbow=horizontal;curved=0;rounded=0;dashed=1;dashPattern=2 3;fontSize=16;fontStyle=0;labelBackgroundColor=none;labelBorderColor=none;textShadow=0;html=1;fontFamily=Helvetica;" parent="1" source="uMmNGiAyV6p6Km0TEY7r-14" target="uMmNGiAyV6p6Km0TEY7r-4" edge="1">
          <mxGeometry x="0.0004" relative="1" as="geometry">
            <Array as="points">
              <mxPoint x="1171" y="539" />
            </Array>
            <mxPoint as="offset" />
          </mxGeometry>
        </mxCell>
        <mxCell id="uMmNGiAyV6p6Km0TEY7r-38" value="6. write(address, FALSE)" style="verticalAlign=bottom;endArrow=block;edgeStyle=elbowEdgeStyle;elbow=horizontal;curved=0;rounded=0;fontSize=16;fontStyle=0;labelBackgroundColor=none;labelBorderColor=none;textShadow=0;html=1;fontFamily=Helvetica;" parent="1" source="uMmNGiAyV6p6Km0TEY7r-2" target="uMmNGiAyV6p6Km0TEY7r-13" edge="1">
          <mxGeometry x="0.0628" relative="1" as="geometry">
            <Array as="points">
              <mxPoint x="956" y="689" />
            </Array>
            <mxPoint as="offset" />
          </mxGeometry>
        </mxCell>
        <mxCell id="uMmNGiAyV6p6Km0TEY7r-39" value="7. getAll()" style="verticalAlign=bottom;endArrow=block;edgeStyle=elbowEdgeStyle;elbow=vertical;curved=0;rounded=0;fontSize=16;fontStyle=0;labelBackgroundColor=none;labelBorderColor=none;textShadow=0;html=1;fontFamily=Helvetica;" parent="1" source="uMmNGiAyV6p6Km0TEY7r-2" target="uMmNGiAyV6p6Km0TEY7r-6" edge="1">
          <mxGeometry x="0.1051" y="1" relative="1" as="geometry">
            <Array as="points">
              <mxPoint x="618" y="741" />
            </Array>
            <mxPoint as="offset" />
          </mxGeometry>
        </mxCell>
        <mxCell id="uMmNGiAyV6p6Km0TEY7r-40" value="8. findAll()" style="verticalAlign=bottom;endArrow=block;edgeStyle=elbowEdgeStyle;elbow=vertical;curved=0;rounded=0;fontSize=16;fontStyle=0;labelBackgroundColor=none;labelBorderColor=none;textShadow=0;html=1;fontFamily=Helvetica;" parent="1" source="uMmNGiAyV6p6Km0TEY7r-6" target="uMmNGiAyV6p6Km0TEY7r-17" edge="1">
          <mxGeometry relative="1" as="geometry">
            <Array as="points">
              <mxPoint x="1433" y="793" />
            </Array>
          </mxGeometry>
        </mxCell>
        <mxCell id="uMmNGiAyV6p6Km0TEY7r-41" value="9. return data" style="verticalAlign=bottom;endArrow=block;edgeStyle=elbowEdgeStyle;elbow=horizontal;curved=0;rounded=0;dashed=1;dashPattern=2 3;fontSize=16;fontStyle=0;labelBackgroundColor=none;labelBorderColor=none;textShadow=0;html=1;fontFamily=Helvetica;" parent="1" source="uMmNGiAyV6p6Km0TEY7r-16" target="uMmNGiAyV6p6Km0TEY7r-6" edge="1">
          <mxGeometry relative="1" as="geometry">
            <Array as="points">
              <mxPoint x="1430" y="845" />
            </Array>
          </mxGeometry>
        </mxCell>
        <mxCell id="uMmNGiAyV6p6Km0TEY7r-43" value="11. createReportByType(type, recordingDate)" style="verticalAlign=bottom;endArrow=block;edgeStyle=elbowEdgeStyle;elbow=vertical;curved=0;rounded=0;fontSize=16;fontStyle=0;labelBackgroundColor=none;labelBorderColor=none;textShadow=0;html=1;fontFamily=Helvetica;" parent="1" source="uMmNGiAyV6p6Km0TEY7r-2" target="uMmNGiAyV6p6Km0TEY7r-8" edge="1">
          <mxGeometry x="0.0259" relative="1" as="geometry">
            <Array as="points">
              <mxPoint x="745" y="995" />
            </Array>
            <mxPoint as="offset" />
          </mxGeometry>
        </mxCell>
        <mxCell id="uMmNGiAyV6p6Km0TEY7r-44" value="12. create(report)" style="verticalAlign=bottom;endArrow=block;edgeStyle=elbowEdgeStyle;elbow=horizontal;curved=0;rounded=0;fontSize=16;fontStyle=0;labelBackgroundColor=none;labelBorderColor=none;textShadow=0;html=1;fontFamily=Helvetica;" parent="1" source="uMmNGiAyV6p6Km0TEY7r-8" target="uMmNGiAyV6p6Km0TEY7r-19" edge="1">
          <mxGeometry relative="1" as="geometry">
            <Array as="points">
              <mxPoint x="1685" y="1047" />
            </Array>
          </mxGeometry>
        </mxCell>
        <mxCell id="uMmNGiAyV6p6Km0TEY7r-45" value="13. save(report)" style="verticalAlign=bottom;endArrow=block;edgeStyle=elbowEdgeStyle;elbow=vertical;curved=0;rounded=0;fontSize=16;fontStyle=0;labelBackgroundColor=none;labelBorderColor=none;textShadow=0;html=1;fontFamily=Helvetica;" parent="1" source="uMmNGiAyV6p6Km0TEY7r-19" target="uMmNGiAyV6p6Km0TEY7r-22" edge="1">
          <mxGeometry relative="1" as="geometry">
            <Array as="points">
              <mxPoint x="2351" y="1099" />
            </Array>
          </mxGeometry>
        </mxCell>
        <mxCell id="uMmNGiAyV6p6Km0TEY7r-46" value="14. return result" style="verticalAlign=bottom;endArrow=block;edgeStyle=elbowEdgeStyle;elbow=vertical;curved=0;rounded=0;dashed=1;dashPattern=2 3;fontSize=16;fontStyle=0;labelBackgroundColor=none;labelBorderColor=none;textShadow=0;html=1;fontFamily=Helvetica;" parent="1" source="uMmNGiAyV6p6Km0TEY7r-21" target="uMmNGiAyV6p6Km0TEY7r-19" edge="1">
          <mxGeometry relative="1" as="geometry">
            <Array as="points">
              <mxPoint x="2349" y="1151" />
            </Array>
          </mxGeometry>
        </mxCell>
        <mxCell id="uMmNGiAyV6p6Km0TEY7r-47" value="15. return result" style="verticalAlign=bottom;endArrow=block;edgeStyle=elbowEdgeStyle;elbow=horizontal;curved=0;rounded=0;dashed=1;dashPattern=2 3;fontSize=16;fontStyle=0;labelBackgroundColor=none;labelBorderColor=none;textShadow=0;html=1;fontFamily=Helvetica;" parent="1" source="uMmNGiAyV6p6Km0TEY7r-18" target="uMmNGiAyV6p6Km0TEY7r-8" edge="1">
          <mxGeometry relative="1" as="geometry">
            <Array as="points">
              <mxPoint x="1683" y="1203" />
            </Array>
          </mxGeometry>
        </mxCell>
        <mxCell id="uMmNGiAyV6p6Km0TEY7r-49" value="17. createReportRows(response, reportId, schedulesOfType)" style="verticalAlign=bottom;endArrow=block;edgeStyle=elbowEdgeStyle;elbow=vertical;curved=0;rounded=0;fontSize=16;fontStyle=0;labelBackgroundColor=none;labelBorderColor=none;textShadow=0;html=1;fontFamily=Helvetica;" parent="1" source="uMmNGiAyV6p6Km0TEY7r-2" target="uMmNGiAyV6p6Km0TEY7r-9" edge="1">
          <mxGeometry relative="1" as="geometry">
            <Array as="points">
              <mxPoint x="745" y="1307" />
            </Array>
          </mxGeometry>
        </mxCell>
        <mxCell id="uMmNGiAyV6p6Km0TEY7r-50" value="18. create(row, reportId)" style="verticalAlign=bottom;endArrow=block;edgeStyle=elbowEdgeStyle;elbow=vertical;curved=0;rounded=0;fontSize=16;fontStyle=0;labelBackgroundColor=none;labelBorderColor=none;textShadow=0;html=1;fontFamily=Helvetica;" parent="1" source="uMmNGiAyV6p6Km0TEY7r-9" target="uMmNGiAyV6p6Km0TEY7r-24" edge="1">
          <mxGeometry relative="1" as="geometry">
            <Array as="points">
              <mxPoint x="1915" y="1359" />
            </Array>
          </mxGeometry>
        </mxCell>
        <mxCell id="uMmNGiAyV6p6Km0TEY7r-51" value="19. save(reportRow)" style="verticalAlign=bottom;endArrow=block;edgeStyle=elbowEdgeStyle;elbow=vertical;curved=0;rounded=0;fontSize=16;fontStyle=0;labelBackgroundColor=none;labelBorderColor=none;textShadow=0;html=1;fontFamily=Helvetica;" parent="1" source="uMmNGiAyV6p6Km0TEY7r-24" target="uMmNGiAyV6p6Km0TEY7r-26" edge="1">
          <mxGeometry x="0.0042" relative="1" as="geometry">
            <Array as="points">
              <mxPoint x="2825" y="1411" />
            </Array>
            <mxPoint as="offset" />
          </mxGeometry>
        </mxCell>
        <mxCell id="uMmNGiAyV6p6Km0TEY7r-52" value="20. return result" style="verticalAlign=bottom;endArrow=block;edgeStyle=elbowEdgeStyle;elbow=vertical;curved=0;rounded=0;dashed=1;dashPattern=2 3;fontSize=16;fontStyle=0;labelBackgroundColor=none;labelBorderColor=none;textShadow=0;html=1;fontFamily=Helvetica;" parent="1" source="uMmNGiAyV6p6Km0TEY7r-25" target="uMmNGiAyV6p6Km0TEY7r-24" edge="1">
          <mxGeometry relative="1" as="geometry">
            <Array as="points">
              <mxPoint x="2822" y="1463" />
            </Array>
          </mxGeometry>
        </mxCell>
        <mxCell id="uMmNGiAyV6p6Km0TEY7r-53" value="21. return result" style="verticalAlign=bottom;endArrow=block;edgeStyle=elbowEdgeStyle;elbow=horizontal;curved=0;rounded=0;dashed=1;dashPattern=2 3;fontSize=16;fontStyle=0;labelBackgroundColor=none;labelBorderColor=none;textShadow=0;html=1;fontFamily=Helvetica;" parent="1" source="uMmNGiAyV6p6Km0TEY7r-23" target="uMmNGiAyV6p6Km0TEY7r-9" edge="1">
          <mxGeometry relative="1" as="geometry">
            <Array as="points">
              <mxPoint x="1913" y="1515" />
            </Array>
          </mxGeometry>
        </mxCell>
        <mxCell id="uMmNGiAyV6p6Km0TEY7r-55" value="23. process(type, report, rows)" style="verticalAlign=bottom;endArrow=block;edgeStyle=elbowEdgeStyle;elbow=vertical;curved=0;rounded=0;fontSize=16;fontStyle=0;labelBackgroundColor=none;labelBorderColor=none;textShadow=0;html=1;fontFamily=Helvetica;" parent="1" source="uMmNGiAyV6p6Km0TEY7r-2" target="uMmNGiAyV6p6Km0TEY7r-12" edge="1">
          <mxGeometry relative="1" as="geometry">
            <Array as="points">
              <mxPoint x="850" y="1619" />
            </Array>
          </mxGeometry>
        </mxCell>
        <mxCell id="uMmNGiAyV6p6Km0TEY7r-57" value="25. updateSumJson(report, sums)" style="verticalAlign=bottom;endArrow=block;edgeStyle=elbowEdgeStyle;elbow=vertical;curved=0;rounded=0;fontSize=16;fontStyle=0;labelBackgroundColor=none;labelBorderColor=none;textShadow=0;html=1;fontFamily=Helvetica;" parent="1" source="uMmNGiAyV6p6Km0TEY7r-2" target="uMmNGiAyV6p6Km0TEY7r-10" edge="1">
          <mxGeometry relative="1" as="geometry">
            <Array as="points">
              <mxPoint x="745" y="1723" />
            </Array>
          </mxGeometry>
        </mxCell>
        <mxCell id="uMmNGiAyV6p6Km0TEY7r-58" value="26. update(id, report)" style="verticalAlign=bottom;endArrow=block;edgeStyle=elbowEdgeStyle;elbow=vertical;curved=0;rounded=0;fontSize=16;fontStyle=0;labelBackgroundColor=none;labelBorderColor=none;textShadow=0;html=1;fontFamily=Helvetica;" parent="1" source="uMmNGiAyV6p6Km0TEY7r-10" target="uMmNGiAyV6p6Km0TEY7r-20" edge="1">
          <mxGeometry relative="1" as="geometry">
            <Array as="points">
              <mxPoint x="1685" y="1775" />
            </Array>
          </mxGeometry>
        </mxCell>
        <mxCell id="uMmNGiAyV6p6Km0TEY7r-61" value="" style="points=[];perimeter=orthogonalPerimeter;outlineConnect=0;targetShapes=umlLifeline;portConstraint=eastwest;newEdgeStyle={&quot;edgeStyle&quot;:&quot;elbowEdgeStyle&quot;,&quot;elbow&quot;:&quot;vertical&quot;,&quot;curved&quot;:0,&quot;rounded&quot;:0};fontSize=16;fontStyle=0;labelBackgroundColor=none;labelBorderColor=none;textShadow=0;html=1;fontFamily=Helvetica;" parent="1" vertex="1">
          <mxGeometry x="342" y="380" width="10" height="1570" as="geometry" />
        </mxCell>
        <mxCell id="uMmNGiAyV6p6Km0TEY7r-59" value="27. return result" style="verticalAlign=bottom;endArrow=block;edgeStyle=elbowEdgeStyle;elbow=vertical;curved=0;rounded=0;dashed=1;dashPattern=2 3;fontSize=16;fontStyle=0;labelBackgroundColor=none;labelBorderColor=none;textShadow=0;html=1;fontFamily=Helvetica;" parent="1" source="uMmNGiAyV6p6Km0TEY7r-18" target="uMmNGiAyV6p6Km0TEY7r-10" edge="1">
          <mxGeometry relative="1" as="geometry">
            <Array as="points">
              <mxPoint x="1683" y="1827" />
            </Array>
          </mxGeometry>
        </mxCell>
        <mxCell id="uMmNGiAyV6p6Km0TEY7r-60" value="28. return result" style="verticalAlign=bottom;endArrow=block;edgeStyle=elbowEdgeStyle;elbow=vertical;curved=0;rounded=0;dashed=1;dashPattern=2 3;fontSize=16;fontStyle=0;labelBackgroundColor=none;labelBorderColor=none;textShadow=0;html=1;fontFamily=Helvetica;" parent="1" source="uMmNGiAyV6p6Km0TEY7r-7" target="uMmNGiAyV6p6Km0TEY7r-2" edge="1">
          <mxGeometry relative="1" as="geometry">
            <Array as="points">
              <mxPoint x="743" y="1879" />
            </Array>
          </mxGeometry>
        </mxCell>
        <mxCell id="uMmNGiAyV6p6Km0TEY7r-37" value="5. return blueprints" style="verticalAlign=bottom;endArrow=block;edgeStyle=elbowEdgeStyle;elbow=vertical;curved=0;rounded=0;dashed=1;dashPattern=2 3;fontSize=16;fontStyle=0;labelBackgroundColor=none;labelBorderColor=none;textShadow=0;html=1;fontFamily=Helvetica;" parent="1" source="uMmNGiAyV6p6Km0TEY7r-4" target="uMmNGiAyV6p6Km0TEY7r-2" edge="1">
          <mxGeometry relative="1" as="geometry">
            <Array as="points">
              <mxPoint x="473" y="591" />
            </Array>
          </mxGeometry>
        </mxCell>
        <mxCell id="uMmNGiAyV6p6Km0TEY7r-42" value="10. return schedules" style="verticalAlign=bottom;endArrow=block;edgeStyle=elbowEdgeStyle;elbow=horizontal;curved=0;rounded=0;dashed=1;dashPattern=2 3;fontSize=16;fontStyle=0;labelBackgroundColor=none;labelBorderColor=none;textShadow=0;html=1;fontFamily=Helvetica;" parent="1" source="uMmNGiAyV6p6Km0TEY7r-5" target="uMmNGiAyV6p6Km0TEY7r-2" edge="1">
          <mxGeometry relative="1" as="geometry">
            <Array as="points">
              <mxPoint x="615" y="897" />
            </Array>
          </mxGeometry>
        </mxCell>
        <mxCell id="uMmNGiAyV6p6Km0TEY7r-48" value="16. return result" style="verticalAlign=bottom;endArrow=block;edgeStyle=elbowEdgeStyle;elbow=horizontal;curved=0;rounded=0;dashed=1;dashPattern=2 3;fontSize=16;fontStyle=0;labelBackgroundColor=none;labelBorderColor=none;textShadow=0;html=1;fontFamily=Helvetica;" parent="1" source="uMmNGiAyV6p6Km0TEY7r-7" target="uMmNGiAyV6p6Km0TEY7r-2" edge="1">
          <mxGeometry relative="1" as="geometry">
            <Array as="points">
              <mxPoint x="743" y="1255" />
            </Array>
          </mxGeometry>
        </mxCell>
        <mxCell id="uMmNGiAyV6p6Km0TEY7r-54" value="22. return result" style="verticalAlign=bottom;endArrow=block;edgeStyle=elbowEdgeStyle;elbow=horizontal;curved=0;rounded=0;dashed=1;dashPattern=2 3;fontSize=16;fontStyle=0;labelBackgroundColor=none;labelBorderColor=none;textShadow=0;html=1;fontFamily=Helvetica;" parent="1" source="uMmNGiAyV6p6Km0TEY7r-7" target="uMmNGiAyV6p6Km0TEY7r-2" edge="1">
          <mxGeometry relative="1" as="geometry">
            <Array as="points">
              <mxPoint x="743" y="1567" />
            </Array>
          </mxGeometry>
        </mxCell>
        <mxCell id="uMmNGiAyV6p6Km0TEY7r-56" value="24. return result" style="verticalAlign=bottom;endArrow=block;edgeStyle=elbowEdgeStyle;elbow=horizontal;curved=0;rounded=0;dashed=1;dashPattern=2 3;fontSize=16;fontStyle=0;labelBackgroundColor=none;labelBorderColor=none;textShadow=0;html=1;fontFamily=Helvetica;" parent="1" source="uMmNGiAyV6p6Km0TEY7r-11" target="uMmNGiAyV6p6Km0TEY7r-2" edge="1">
          <mxGeometry relative="1" as="geometry">
            <Array as="points">
              <mxPoint x="848" y="1671" />
            </Array>
          </mxGeometry>
        </mxCell>
        <mxCell id="uMmNGiAyV6p6Km0TEY7r-33" value="1. handle(context, response)" style="verticalAlign=bottom;endArrow=block;edgeStyle=elbowEdgeStyle;elbow=vertical;curved=0;rounded=0;fontSize=16;fontStyle=0;labelBackgroundColor=none;labelBorderColor=none;textShadow=0;html=1;fontFamily=Helvetica;" parent="1" source="uMmNGiAyV6p6Km0TEY7r-1" target="uMmNGiAyV6p6Km0TEY7r-2" edge="1">
          <mxGeometry relative="1" as="geometry">
            <Array as="points">
              <mxPoint x="231" y="383" />
            </Array>
          </mxGeometry>
        </mxCell>
      </root>
    </mxGraphModel>
  </diagram>
</mxfile>
